<mxfile host="65bd71144e">
    <diagram id="b-Bwdr1y-Pm7TVUk07Hk" name="Page-1">
        <mxGraphModel dx="1753" dy="1172" grid="1" gridSize="10" guides="1" tooltips="1" connect="1" arrows="1" fold="1" page="1" pageScale="1.5" pageWidth="827" pageHeight="1169" background="none" math="0" shadow="0">
            <root>
                <mxCell id="0"/>
                <mxCell id="1" parent="0"/>
                <mxCell id="31" style="edgeStyle=orthogonalEdgeStyle;rounded=0;orthogonalLoop=1;jettySize=auto;html=1;exitX=0.5;exitY=1;exitDx=0;exitDy=0;entryX=0;entryY=0.5;entryDx=0;entryDy=0;fontSize=13;spacing=2;strokeWidth=2;" parent="1" edge="1">
                    <mxGeometry relative="1" as="geometry">
                        <Array as="points">
                            <mxPoint x="119" y="260"/>
                            <mxPoint x="59" y="260"/>
                            <mxPoint x="59" y="315"/>
                        </Array>
                        <mxPoint x="119" y="240" as="sourcePoint"/>
                        <mxPoint x="79" y="315" as="targetPoint"/>
                    </mxGeometry>
                </mxCell>
                <mxCell id="2" value="e[0]" style="rounded=0;whiteSpace=wrap;html=1;fillColor=#f5f5f5;strokeColor=#666666;fontColor=#333333;fontSize=15;strokeWidth=2;" parent="1" vertex="1">
                    <mxGeometry x="80" y="200" width="80" height="40" as="geometry"/>
                </mxCell>
                <mxCell id="11" value="&lt;span style=&quot;font-size: 15px&quot;&gt;e[63]&lt;/span&gt;" style="rounded=0;whiteSpace=wrap;html=1;fillColor=#f5f5f5;strokeColor=#666666;fontColor=#333333;fontSize=15;strokeWidth=2;" parent="1" vertex="1">
                    <mxGeometry x="560" y="200" width="80" height="40" as="geometry"/>
                </mxCell>
                <mxCell id="12" value="&lt;span style=&quot;font-size: 15px&quot;&gt;e[62]&lt;/span&gt;" style="rounded=0;whiteSpace=wrap;html=1;fillColor=#f5f5f5;strokeColor=#666666;fontColor=#333333;fontSize=15;strokeWidth=2;" parent="1" vertex="1">
                    <mxGeometry x="480" y="200" width="80" height="40" as="geometry"/>
                </mxCell>
                <mxCell id="14" value="&lt;span style=&quot;font-size: 15px&quot;&gt;e[3]&lt;/span&gt;" style="rounded=0;whiteSpace=wrap;html=1;fillColor=#f5f5f5;strokeColor=#666666;fontColor=#333333;fontSize=15;strokeWidth=2;" parent="1" vertex="1">
                    <mxGeometry x="320" y="200" width="80" height="40" as="geometry"/>
                </mxCell>
                <mxCell id="60" style="edgeStyle=orthogonalEdgeStyle;rounded=0;orthogonalLoop=1;jettySize=auto;html=1;exitX=0.5;exitY=1;exitDx=0;exitDy=0;entryX=0;entryY=0.5;entryDx=0;entryDy=0;fontSize=15;strokeWidth=2;" parent="1" source="15" target="57" edge="1">
                    <mxGeometry relative="1" as="geometry">
                        <Array as="points">
                            <mxPoint x="280" y="260"/>
                            <mxPoint x="220" y="260"/>
                            <mxPoint x="220" y="315"/>
                        </Array>
                    </mxGeometry>
                </mxCell>
                <mxCell id="15" value="&lt;span style=&quot;font-size: 15px&quot;&gt;e[2]&lt;/span&gt;" style="rounded=0;whiteSpace=wrap;html=1;fillColor=#f5f5f5;strokeColor=#666666;fontColor=#333333;fontSize=15;strokeWidth=2;" parent="1" vertex="1">
                    <mxGeometry x="240" y="200" width="80" height="40" as="geometry"/>
                </mxCell>
                <mxCell id="16" value="&lt;span style=&quot;font-size: 15px&quot;&gt;e[1]&lt;/span&gt;" style="rounded=0;whiteSpace=wrap;html=1;fillColor=#f5f5f5;strokeColor=#666666;fontColor=#333333;fontSize=15;strokeWidth=2;" parent="1" vertex="1">
                    <mxGeometry x="160" y="200" width="80" height="40" as="geometry"/>
                </mxCell>
                <mxCell id="18" value="&lt;font style=&quot;font-size: 15px;&quot;&gt;0x20&lt;/font&gt;" style="text;html=1;strokeColor=none;fillColor=none;align=center;verticalAlign=middle;whiteSpace=wrap;rounded=0;fontSize=15;strokeWidth=2;" parent="1" vertex="1">
                    <mxGeometry x="100" y="160" width="40" height="20" as="geometry"/>
                </mxCell>
                <mxCell id="19" value="&lt;font style=&quot;font-size: 15px;&quot;&gt;0x30&lt;/font&gt;" style="text;html=1;strokeColor=none;fillColor=none;align=center;verticalAlign=middle;whiteSpace=wrap;rounded=0;fontSize=15;strokeWidth=2;" parent="1" vertex="1">
                    <mxGeometry x="180" y="160" width="40" height="20" as="geometry"/>
                </mxCell>
                <mxCell id="20" value="&lt;font style=&quot;font-size: 15px;&quot;&gt;0x40&lt;/font&gt;" style="text;html=1;strokeColor=none;fillColor=none;align=center;verticalAlign=middle;whiteSpace=wrap;rounded=0;fontSize=15;strokeWidth=2;" parent="1" vertex="1">
                    <mxGeometry x="260" y="160" width="40" height="20" as="geometry"/>
                </mxCell>
                <mxCell id="21" value="&lt;font style=&quot;font-size: 15px;&quot;&gt;0x50&lt;/font&gt;" style="text;html=1;strokeColor=none;fillColor=none;align=center;verticalAlign=middle;whiteSpace=wrap;rounded=0;fontSize=15;strokeWidth=2;" parent="1" vertex="1">
                    <mxGeometry x="340" y="160" width="40" height="20" as="geometry"/>
                </mxCell>
                <mxCell id="23" value="&lt;font style=&quot;font-size: 15px;&quot;&gt;0x640&lt;/font&gt;" style="text;html=1;strokeColor=none;fillColor=none;align=center;verticalAlign=middle;whiteSpace=wrap;rounded=0;fontSize=15;strokeWidth=2;" parent="1" vertex="1">
                    <mxGeometry x="500" y="160" width="40" height="20" as="geometry"/>
                </mxCell>
                <mxCell id="24" value="&lt;font style=&quot;font-size: 15px;&quot;&gt;0x650&lt;/font&gt;" style="text;html=1;strokeColor=none;fillColor=none;align=center;verticalAlign=middle;whiteSpace=wrap;rounded=0;fontSize=15;strokeWidth=2;" parent="1" vertex="1">
                    <mxGeometry x="580" y="160" width="40" height="20" as="geometry"/>
                </mxCell>
                <mxCell id="27" value="in used" style="rounded=0;whiteSpace=wrap;html=1;fillColor=#f5f5f5;strokeColor=#666666;fontColor=#333333;fontSize=14;strokeWidth=2;" parent="1" vertex="1">
                    <mxGeometry x="80" y="270" width="50" height="30" as="geometry"/>
                </mxCell>
                <mxCell id="28" value="0x21" style="rounded=0;whiteSpace=wrap;html=1;fillColor=#f5f5f5;strokeColor=#666666;fontColor=#333333;fontSize=14;strokeWidth=2;" parent="1" vertex="1">
                    <mxGeometry x="130" y="270" width="50" height="30" as="geometry"/>
                </mxCell>
                <mxCell id="36" style="edgeStyle=orthogonalEdgeStyle;rounded=0;orthogonalLoop=1;jettySize=auto;html=1;exitX=0.5;exitY=1;exitDx=0;exitDy=0;entryX=0;entryY=0.5;entryDx=0;entryDy=0;fontSize=14;spacing=2;strokeWidth=2;" parent="1" edge="1">
                    <mxGeometry relative="1" as="geometry">
                        <Array as="points">
                            <mxPoint x="104" y="350"/>
                            <mxPoint x="59" y="350"/>
                            <mxPoint x="59" y="405"/>
                        </Array>
                        <mxPoint x="104" y="330" as="sourcePoint"/>
                        <mxPoint x="79" y="405" as="targetPoint"/>
                    </mxGeometry>
                </mxCell>
                <mxCell id="29" value="fd1" style="rounded=0;whiteSpace=wrap;html=1;fillColor=#f5f5f5;strokeColor=#666666;fontColor=#333333;fontSize=14;strokeWidth=2;" parent="1" vertex="1">
                    <mxGeometry x="80" y="300" width="50" height="30" as="geometry"/>
                </mxCell>
                <mxCell id="30" value="bk" style="rounded=0;whiteSpace=wrap;html=1;fillColor=#f5f5f5;strokeColor=#666666;fontColor=#333333;fontSize=14;strokeWidth=2;" parent="1" vertex="1">
                    <mxGeometry x="130" y="300" width="50" height="30" as="geometry"/>
                </mxCell>
                <mxCell id="32" value="in used" style="rounded=0;whiteSpace=wrap;html=1;fillColor=#f5f5f5;strokeColor=#666666;fontColor=#333333;fontSize=14;strokeWidth=2;" parent="1" vertex="1">
                    <mxGeometry x="80" y="360" width="50" height="30" as="geometry"/>
                </mxCell>
                <mxCell id="33" value="0x21" style="rounded=0;whiteSpace=wrap;html=1;fillColor=#f5f5f5;strokeColor=#666666;fontColor=#333333;fontSize=14;strokeWidth=2;" parent="1" vertex="1">
                    <mxGeometry x="130" y="360" width="50" height="30" as="geometry"/>
                </mxCell>
                <mxCell id="34" value="fd2" style="rounded=0;whiteSpace=wrap;html=1;fillColor=#f5f5f5;strokeColor=#666666;fontColor=#333333;fontSize=14;strokeWidth=2;" parent="1" vertex="1">
                    <mxGeometry x="80" y="390" width="50" height="30" as="geometry"/>
                </mxCell>
                <mxCell id="35" value="&lt;span style=&quot;font-size: 14px;&quot;&gt;bk&lt;/span&gt;" style="rounded=0;whiteSpace=wrap;html=1;fillColor=#f5f5f5;strokeColor=#666666;fontColor=#333333;fontSize=14;strokeWidth=2;" parent="1" vertex="1">
                    <mxGeometry x="130" y="390" width="50" height="30" as="geometry"/>
                </mxCell>
                <mxCell id="38" value="......" style="text;html=1;strokeColor=none;fillColor=none;align=center;verticalAlign=middle;whiteSpace=wrap;rounded=0;fontSize=15;strokeWidth=2;" parent="1" vertex="1">
                    <mxGeometry x="420" y="210" width="40" height="20" as="geometry"/>
                </mxCell>
                <mxCell id="39" value="&lt;font color=&quot;#000000&quot; style=&quot;font-size: 14px;&quot;&gt;&lt;span style=&quot;font-family: helvetica; font-size: 14px;&quot;&gt;counts[0]=&lt;/span&gt;2&lt;/font&gt;" style="rounded=0;whiteSpace=wrap;html=1;fillColor=#f5f5f5;strokeColor=#666666;fontColor=#333333;fontSize=14;strokeWidth=2;" parent="1" vertex="1">
                    <mxGeometry x="80" y="120" width="80" height="30" as="geometry"/>
                </mxCell>
                <mxCell id="41" value="&lt;font style=&quot;font-size: 12px&quot;&gt;tcache_entry *entries[TCACHE_MAX_BINS];&lt;/font&gt;" style="text;html=1;strokeColor=none;fillColor=none;align=left;verticalAlign=middle;whiteSpace=wrap;rounded=0;fontSize=13;strokeWidth=2;" parent="1" vertex="1">
                    <mxGeometry x="80" y="180" width="270" height="20" as="geometry"/>
                </mxCell>
                <mxCell id="42" value="&lt;font style=&quot;font-size: 12px&quot;&gt;char counts[TCACHE_MAX_BINS];&lt;/font&gt;" style="text;html=1;strokeColor=none;fillColor=none;align=left;verticalAlign=middle;whiteSpace=wrap;rounded=0;fontSize=13;strokeWidth=2;" parent="1" vertex="1">
                    <mxGeometry x="80" y="100" width="210" height="20" as="geometry"/>
                </mxCell>
                <mxCell id="43" value="&lt;font color=&quot;#000000&quot; style=&quot;font-size: 14px;&quot;&gt;&lt;span style=&quot;font-family: helvetica; font-size: 14px;&quot;&gt;counts[1]=&lt;/span&gt;&lt;span style=&quot;font-size: 14px;&quot;&gt;0&lt;/span&gt;&lt;/font&gt;" style="rounded=0;whiteSpace=wrap;html=1;fillColor=#f5f5f5;strokeColor=#666666;fontColor=#333333;fontSize=14;strokeWidth=2;" parent="1" vertex="1">
                    <mxGeometry x="160" y="120" width="80" height="30" as="geometry"/>
                </mxCell>
                <mxCell id="44" value="&lt;font color=&quot;#000000&quot; style=&quot;font-size: 14px;&quot;&gt;&lt;span style=&quot;font-family: helvetica; font-size: 14px;&quot;&gt;counts[2]=&lt;/span&gt;&lt;span style=&quot;font-size: 14px;&quot;&gt;1&lt;/span&gt;&lt;/font&gt;" style="rounded=0;whiteSpace=wrap;html=1;fillColor=#f5f5f5;strokeColor=#666666;fontColor=#333333;fontSize=14;strokeWidth=2;" parent="1" vertex="1">
                    <mxGeometry x="240" y="120" width="80" height="30" as="geometry"/>
                </mxCell>
                <mxCell id="45" value="&lt;font color=&quot;#000000&quot; style=&quot;font-size: 14px;&quot;&gt;&lt;span style=&quot;font-family: helvetica; font-size: 14px;&quot;&gt;counts[3]=&lt;/span&gt;&lt;span style=&quot;font-size: 14px;&quot;&gt;0&lt;/span&gt;&lt;/font&gt;" style="rounded=0;whiteSpace=wrap;html=1;fillColor=#f5f5f5;strokeColor=#666666;fontColor=#333333;fontSize=14;strokeWidth=2;" parent="1" vertex="1">
                    <mxGeometry x="320" y="120" width="80" height="30" as="geometry"/>
                </mxCell>
                <mxCell id="46" value="&lt;span style=&quot;font-family: &amp;#34;helvetica&amp;#34;&quot;&gt;&lt;font color=&quot;#000000&quot; style=&quot;font-size: 13px&quot;&gt;counts[62]&lt;/font&gt;&lt;/span&gt;" style="rounded=0;whiteSpace=wrap;html=1;fillColor=#f5f5f5;strokeColor=#666666;fontColor=#333333;fontSize=15;strokeWidth=2;" parent="1" vertex="1">
                    <mxGeometry x="480" y="120" width="80" height="30" as="geometry"/>
                </mxCell>
                <mxCell id="47" value="&lt;span style=&quot;font-family: &amp;#34;helvetica&amp;#34;&quot;&gt;&lt;font color=&quot;#000000&quot; style=&quot;font-size: 14px&quot;&gt;counts[63]&lt;/font&gt;&lt;/span&gt;" style="rounded=0;whiteSpace=wrap;html=1;fillColor=#f5f5f5;strokeColor=#666666;fontColor=#333333;fontSize=15;strokeWidth=2;" parent="1" vertex="1">
                    <mxGeometry x="560" y="120" width="80" height="30" as="geometry"/>
                </mxCell>
                <mxCell id="55" value="in used" style="rounded=0;whiteSpace=wrap;html=1;fillColor=#f5f5f5;strokeColor=#666666;fontColor=#333333;fontSize=14;strokeWidth=2;" parent="1" vertex="1">
                    <mxGeometry x="240" y="270" width="50" height="30" as="geometry"/>
                </mxCell>
                <mxCell id="56" value="0x41" style="rounded=0;whiteSpace=wrap;html=1;fillColor=#f5f5f5;strokeColor=#666666;fontColor=#333333;fontSize=14;strokeWidth=2;" parent="1" vertex="1">
                    <mxGeometry x="290" y="270" width="50" height="30" as="geometry"/>
                </mxCell>
                <mxCell id="57" value="fd5" style="rounded=0;whiteSpace=wrap;html=1;fillColor=#f5f5f5;strokeColor=#666666;fontColor=#333333;fontSize=14;strokeWidth=2;" parent="1" vertex="1">
                    <mxGeometry x="240" y="300" width="50" height="30" as="geometry"/>
                </mxCell>
                <mxCell id="58" value="&lt;span style=&quot;font-size: 14px;&quot;&gt;bk&lt;/span&gt;" style="rounded=0;whiteSpace=wrap;html=1;fillColor=#f5f5f5;strokeColor=#666666;fontColor=#333333;fontSize=14;strokeWidth=2;" parent="1" vertex="1">
                    <mxGeometry x="290" y="300" width="50" height="30" as="geometry"/>
                </mxCell>
            </root>
        </mxGraphModel>
    </diagram>
</mxfile>